# xmcd
#
# Track frame offsets: 
#        180
#        17149
#        54069
#        74741
#        95403
#        120429
#        135992
#        158500
#        174863
#        195831
#        222108
#        258910
#        277771
#
# Disc length: 3999 seconds
#
# Revision: 0
# Processed by: cddbd v1.4PL0 Copyright (c) Steve Scherf et al.
# Submitted via: ExactAudioCopy v0.90b3
#
DISCID=9b0f9d0d
DTITLE=Eric Clapton - Blues and Ballads
DYEAR=1900
DGENRE=
TTITLE0=Wonderful Tonight
TTITLE1=Double Trouble
TTITLE2=Layla
TTITLE3=Tears In Heaven
TTITLE4=Pretty Girl
TTITLE5=Golden Ring
TTITLE6=Let It Grow
TTITLE7=Cocaine
TTITLE8=All Our Fast Times
TTITLE9=Lead Me On
TTITLE10=Same Old Blues
TTITLE11=Can't Stand It
TTITLE12=Holy Mother
EXTD=
EXTT0=
EXTT1=
EXTT2=
EXTT3=
EXTT4=
EXTT5=
EXTT6=
EXTT7=
EXTT8=
EXTT9=
EXTT10=
EXTT11=
EXTT12=
PLAYORDER=
